<svg xmlns="http://www.w3.org/2000/svg" xmlns:xlink="http://www.w3.org/1999/xlink" version="1.1" x="0px" y="0px" viewBox="0 0 100 100" enable-background="new 0 0 100 100" xml:space="preserve"><path d="M87.887,10.829c-0.012-0.935-0.774-1.687-1.709-1.687H73.394c-0.192-0.964-0.416-1.923-0.671-2.876  C72.522,5.519,71.846,5,71.072,5H28.928c-0.773,0-1.45,0.519-1.651,1.266c-0.256,0.953-0.479,1.912-0.671,2.876H13.822  c-0.935,0-1.697,0.752-1.709,1.687c-0.004,0.303-0.061,7.522,3.048,15.753c1.839,4.87,4.411,9.083,7.643,12.52  c3.867,4.113,8.679,7.106,14.311,8.907c0.05,0.06,0.1,0.12,0.15,0.18c2.467,2.935,4.37,6.144,5.658,9.537  c0.472,1.243,0.86,2.515,1.162,3.799H37.65c-3.455,0-6.266,2.811-6.266,6.266v1.248h-3.927c-0.944,0-1.709,0.765-1.709,1.709v22.543  c0,0.944,0.765,1.709,1.709,1.709h45.086c0.944,0,1.709-0.765,1.709-1.709V70.748c0-0.944-0.765-1.709-1.709-1.709h-3.927v-1.248  c0-3.455-2.811-6.266-6.266-6.266h-6.434c1.121-4.757,3.454-9.332,6.819-13.336c0.05-0.06,0.1-0.12,0.15-0.18  c5.632-1.801,10.444-4.794,14.311-8.907c3.232-3.437,5.804-7.65,7.643-12.52C87.948,18.35,87.891,11.132,87.887,10.829z   M18.397,25.478c-2.051-5.386-2.635-10.403-2.801-12.918h10.466c-0.208,1.742-0.314,3.492-0.314,5.239  c0,5.392,0.986,10.736,2.931,15.883c1.186,3.139,2.717,6.17,4.572,9.064C26.425,39.259,21.442,33.473,18.397,25.478z M70.834,91.582  H29.166V72.457h3.927h33.814h3.927V91.582z M65.198,67.791v1.248H34.802v-1.248c0-1.57,1.278-2.848,2.848-2.848h24.7  C63.921,64.943,65.198,66.221,65.198,67.791z M54.913,54.083c-1.129,2.404-1.966,4.901-2.497,7.442h-4.83  c-0.355-1.696-0.846-3.377-1.467-5.012c-1.424-3.753-3.523-7.293-6.237-10.523c-7.01-8.341-10.715-18.09-10.715-28.191  c0-3.141,0.368-6.291,1.094-9.381h39.48c0.726,3.091,1.094,6.24,1.094,9.381c0,10.101-3.705,19.85-10.715,28.191  C58.005,48.505,56.254,51.228,54.913,54.083z M81.642,25.375c-3.04,8.049-8.037,13.87-14.894,17.372  c1.856-2.894,3.387-5.925,4.573-9.064c1.945-5.147,2.931-10.491,2.931-15.883c0-1.748-0.105-3.498-0.314-5.239h10.468  C84.244,15.053,83.668,20.008,81.642,25.375z"/></svg>
