<svg id="Capa_1" enable-background="new 0 0 512.002 512.002" height="512" viewBox="0 0 512.002 512.002" width="512" xmlns="http://www.w3.org/2000/svg"><g><path d="m164.211 512.001c-3.609 0-6.79-2.611-7.392-6.289l-7.736-47.252c-7.71.443-14.378.694-19.584.694-44.185 0-66.636-10.054-67.57-10.481-2.885-1.321-4.626-4.316-4.347-7.478 6.681-75.76 27.407-125.091 43.619-153.134 8.852-15.312 23.116-26.382 40.165-31.173l54.648-15.355c.002 0 .005-.001.007-.002 8.015-2.251 9.583-6.046 9.583-11.838v-7.223c-10.592-12.485-19.523-28.003-24.304-44.879-8.551-1.743-16.445-7.225-22.675-15.865-6.213-8.616-10.073-19.7-10.073-28.925 0-10.854 4.688-20.294 12.54-25.25 4.883-3.082 10.522-4.245 16.46-3.491v-3.711c-.002-.112-.002-.225 0-.337v-24.208c0-27.288 18.305-40.629 31.091-45.129 4.146-12.67 17.405-30.675 46.527-30.675 50.455 0 76.905 38.483 78.006 40.121 2.311 3.438 1.397 8.098-2.04 10.409-3.435 2.309-8.09 1.398-10.403-2.032-1.023-1.5-23.374-33.498-65.563-33.498-27.899 0-32.508 20.641-32.942 22.994-.511 3.049-2.83 5.414-5.856 6.044-.93.207-23.82 5.578-23.82 31.766v11.346c11.952-9.021 14.87-19.719 15.015-20.277.814-3.365 3.812-5.676 7.275-5.676h82.321c3.463 0 6.476 2.371 7.29 5.736.133.51 3.049 11.197 15 20.217v-12.844c0-4.143 3.358-7.5 7.5-7.5s7.5 3.357 7.5 7.5v25.707c.002.112.002.225 0 .337v3.711c5.938-.754 11.577.409 16.46 3.491 7.852 4.956 12.54 14.396 12.54 25.25 0 9.225-3.859 20.309-10.073 28.925-6.23 8.641-14.125 14.122-22.675 15.865-4.781 16.876-13.712 32.394-24.304 44.878v7.224c0 5.792 1.568 9.587 9.583 11.838.002.001.005.002.007.002l54.648 15.355c3.988 1.121 6.312 5.262 5.191 9.249-1.12 3.988-5.261 6.313-9.249 5.192l-19.054-5.354c-3.035 4.174-8.16 10.362-16.015 17.41 8.202 11.513 23.731 37.671 26.528 73.686 13.075-1.484 22.874-2.231 29.313-2.231 16.684 0 29.381 4.584 38.559 9.998-8.475-30.855-19.029-53.586-28.095-69.269-2.348-4.062-5.231-7.79-8.57-11.082-2.95-2.908-2.984-7.656-.076-10.606 2.908-2.948 7.657-2.982 10.606-.075 4.296 4.235 8.006 9.031 11.026 14.256 16.211 28.043 36.938 77.374 43.619 153.134.279 3.161-1.462 6.156-4.347 7.478-.934.428-23.385 10.481-67.57 10.481-5.078 0-11.576-1.076-19.212-3.001l-8.108 49.558c-.669 4.089-4.526 6.864-8.612 6.19-4.088-.669-6.859-4.524-6.19-8.612l8.399-51.341c-8.877-2.843-18.72-6.4-29.251-10.448-14.299 1.709-100.277 11.878-155.411 15.96l7.503 45.828c.669 4.088-2.102 7.944-6.189 8.613-.412.066-.821.098-1.223.098zm159.13-85.104c26.05 10.084 47.913 17.257 59.163 17.257 29.241 0 48.116-4.705 56.438-7.36-1.719-17.277-4.186-33.065-7.154-47.432-3.136-4.219-16.446-19.522-44.436-19.522-12.189 0-39.232 3.128-78.204 9.046-4.1.617-7.919-2.194-8.541-6.289s2.194-7.919 6.289-8.541c13.593-2.064 25.68-3.784 36.235-5.158-2.363-32.167-16.34-55.986-23.313-66.038-14.228 10.441-34.172 21.581-61.516 30.4-1.497.482-3.107.482-4.605 0-27.354-8.822-47.296-19.956-61.523-30.398-7.496 10.782-22.633 36.772-23.601 71.91 12.521 4.206 26.468 9.51 41.288 15.44 4.842-.87 34.171-6.114 67.74-11.551 4.086-.672 7.94 2.116 8.602 6.204.663 4.089-2.115 7.94-6.205 8.603-16.546 2.68-32.058 5.313-44.091 7.394 8.39 3.485 16.935 7.072 25.556 10.69 21.063 8.841 42.432 17.811 61.562 25.224.107.037.212.078.316.121zm-250.281 9.899c8.307 2.649 27.185 7.358 56.438 7.358 30.443 0 115.424-9.191 160.749-14.353-11.209-4.605-22.828-9.482-34.588-14.419-50.857-21.348-108.5-45.543-131.009-45.543-27.89 0-41.467 15.614-44.44 19.54-2.966 14.361-5.432 30.147-7.15 47.417zm91.415-170.819-19.053 5.354c-13.26 3.726-24.354 12.334-31.236 24.239-9.061 15.673-19.607 38.385-28.079 69.211 9.164-5.395 21.841-9.94 38.542-9.94 7.47 0 17.385 1.943 29.104 5.293 2.097-37.526 18.147-64.729 26.729-76.745-7.843-7.041-12.964-13.226-16.007-17.412zm15.648-4.398c9.512 11.18 31.964 32.026 75.878 46.65 23.525-7.83 43.56-18.27 59.579-31.048 7.495-5.979 12.78-11.43 16.314-15.598l-15.141-4.255c-6.734 7.659-23.791 22.987-58.684 33.002-1.352.389-2.786.389-4.138 0-34.893-10.015-51.95-25.343-58.684-33.002zm30.075-10.243c7.834 7.238 22.658 17.015 45.803 23.97 23.124-6.948 37.941-16.713 45.796-23.975-5.058-3.557-8.321-8.489-9.678-14.66-4.264 3.539-8.608 6.565-12.91 8.999-8.458 4.787-37.958 4.787-46.417 0-4.302-2.434-8.646-5.46-12.909-8.999-1.358 6.174-4.623 11.108-9.685 14.665zm-15.524-81.815c6.869 29.514 29 53.756 45.505 63.095 4.542 2.181 27.102 2.182 31.704-.032 16.455-9.311 38.576-33.549 45.445-63.06.052-.334.127-.661.222-.979 1.223-5.547 1.902-11.273 1.902-17.119v-46.564c-16.625-8.817-24.283-21.404-27.508-28.665h-71.886c-3.225 7.261-10.883 19.848-27.508 28.665v46.564c0 5.846.68 11.574 1.903 17.121.094.316.169.641.221.974zm139.778-50.211v32.116c0 2.904-.143 5.792-.419 8.662 8.475-5.757 14.419-18.309 14.419-27.286 0-5.676-2.073-10.373-5.546-12.565-2.667-1.682-5.717-1.627-8.454-.927zm-160.33-.461c-1.713 0-3.437.386-5.026 1.388-3.473 2.192-5.546 6.89-5.546 12.565 0 8.978 5.945 21.529 14.419 27.286-.276-2.87-.419-5.758-.419-8.662v-32.116c-1.107-.284-2.264-.461-3.428-.461zm81.879 83.37c-10.962 0-21.925-1.703-30.467-5.109-3.848-1.534-5.723-5.897-4.189-9.744 1.534-3.848 5.896-5.725 9.745-4.189 13.503 5.385 36.319 5.385 49.822 0 3.846-1.534 8.21.341 9.745 4.189 1.534 3.847-.341 8.21-4.189 9.744-8.542 3.406-19.504 5.109-30.467 5.109zm38.189-49.07h-20.531c-4.142 0-7.5-3.357-7.5-7.5s3.358-7.5 7.5-7.5h20.531c4.142 0 7.5 3.357 7.5 7.5s-3.358 7.5-7.5 7.5zm-57.511 0h-20.531c-4.142 0-7.5-3.357-7.5-7.5s3.358-7.5 7.5-7.5h20.531c4.142 0 7.5 3.357 7.5 7.5s-3.358 7.5-7.5 7.5zm36.972-28.999c-3.583 0-6.752-2.576-7.382-6.227-.704-4.082 2.035-7.962 6.117-8.665l20.531-3.54c4.085-.701 7.961 2.035 8.666 6.116.704 4.082-2.035 7.962-6.117 8.665l-20.531 3.54c-.432.075-.862.111-1.284.111zm-36.963 0c-.423 0-.852-.036-1.283-.11l-20.531-3.54c-4.082-.703-6.82-4.583-6.117-8.665.704-4.081 4.585-6.817 8.666-6.116l20.531 3.54c4.082.703 6.82 4.583 6.117 8.665-.63 3.65-3.8 6.226-7.383 6.226z"/></g></svg>