<svg id="Capa_1" enable-background="new 0 0 512.182 512.182" height="512" viewBox="0 0 512.182 512.182" width="512" xmlns="http://www.w3.org/2000/svg"><g><path d="m161.373 453.391c-3.312 0-6.342-2.21-7.24-5.561-1.072-4.001 1.302-8.113 5.304-9.186l154.97-41.525c-20.016-3.287-39.478-10.208-57.57-20.653-10.884-6.284-20.91-13.634-29.97-21.91l-180.239 48.294c-4 1.076-8.113-1.302-9.186-5.303-1.072-4.001 1.302-8.114 5.304-9.186l171.986-46.083c-7.313-8.201-13.801-17.094-19.387-26.579l-55.541 14.882c-4 1.077-8.113-1.302-9.186-5.303-1.072-4.001 1.303-8.114 5.304-9.186l52.226-13.994c-3.31-7.007-6.157-14.275-8.517-21.777l-170.188 45.602c-4 1.075-8.113-1.303-9.186-5.303-1.072-4.001 1.302-8.114 5.303-9.186l170.192-45.604c-7.257-32.725-4.481-65.576 6.377-95.163l-124.342 33.318c-3.999 1.075-8.113-1.302-9.186-5.303-1.072-4.001 1.302-8.114 5.303-9.186l135.809-36.391c10.697-21.404 25.846-40.528 44.586-55.875l-85.379 22.877c-3.999 1.075-8.113-1.302-9.186-5.303-1.072-4.001 1.302-8.114 5.304-9.186l152.849-40.955c43.912-11.768 89.781-5.729 129.152 17.002 39.372 22.731 67.535 59.435 79.302 103.348 1.072 4.001-1.302 8.114-5.304 9.186-3.999 1.074-8.113-1.302-9.186-5.303-3.615-13.494-8.93-26.243-15.76-38.008l-47.958 31.144c2.621 16.407 3.473 33.768 2.534 51.684-.938 17.903-3.602 35.078-7.927 51.131l44.364 35.925c21.097-28.765 32.317-64.705 29.706-102.289-.287-4.132 2.83-7.715 6.962-8.002 4.121-.276 7.714 2.83 8.002 6.963 5.625 80.954-47.268 154.979-125.769 176.02-.005.002-.009.003-.014.004l-222.67 59.665c-.652.175-1.305.258-1.948.258zm131.995-76.866c28.472 9.442 59.093 10.398 88.739 2.454 30.033-8.047 55.958-24.6 75.556-46.551l-44.363-35.923c-14.803 7.567-31.048 13.745-48.365 18.385-17.315 4.64-34.473 7.413-51.078 8.261zm-82.922-64.872c13.276 21.196 31.617 38.962 53.892 51.822 4.908 2.833 9.927 5.383 15.038 7.646l20.478-53.346c-7.457-7.437-14.579-15.611-21.245-24.386zm83.898-22.479c5.47 6.818 11.228 13.202 17.201 19.069 16.03-.695 32.667-3.33 49.507-7.842 16.841-4.513 32.567-10.551 46.795-17.963 4.292-15.458 6.928-32.096 7.84-49.507.913-17.425.033-34.248-2.617-50.06-6.878-4.555-14.216-8.808-21.882-12.684l-70.281 18.831c-3.999 1.075-8.114-1.302-9.186-5.303s1.303-8.114 5.304-9.186l72.8-19.507c1.749-.524 3.692-.418 5.461.448 8.634 4.233 16.914 8.925 24.676 13.98l47.971-31.152c-12.67-17.604-29.049-32.474-48.396-43.644-33.728-19.472-72.685-25.51-110.48-17.274l14.784 55.174c8.01 1.257 16.136 2.988 24.224 5.162 4 1.075 6.372 5.189 5.296 9.19-1.076 4-5.189 6.368-9.19 5.296-8.091-2.175-16.212-3.875-24.188-5.064-12.547 9.975-24.459 21.888-35.441 35.45-10.981 13.561-20.158 27.688-27.307 42.037 3.758 10.06 8.441 20.147 13.944 30.032 2.015 3.618.714 8.186-2.905 10.2-3.619 2.018-8.185.715-10.201-2.904-5.584-10.032-10.384-20.278-14.302-30.523l-57.055-2.991c-.059 13.475 1.653 27.167 5.305 40.794 2.703 10.087 6.354 19.757 10.878 28.91l120.453-32.274c3.998-1.075 8.114 1.302 9.186 5.303s-1.302 8.113-5.304 9.186zm-106.828-75.711 57.044 2.99c7.523-14.813 17.037-29.359 28.328-43.302 11.292-13.944 23.541-26.275 36.466-36.713l-14.783-55.171c-36.473 11.665-65.876 35.833-84.717 66.442l40.341-10.81c4.001-1.075 8.114 1.302 9.186 5.303s-1.302 8.114-5.304 9.186l-53.791 14.414c-6.707 14.98-11.074 31.059-12.77 47.661zm-180.019-55.724c-3.312 0-6.342-2.21-7.24-5.561-1.072-4.001 1.302-8.114 5.303-9.186l110.661-29.651c3.999-1.076 8.113 1.302 9.186 5.303 1.072 4.001-1.303 8.114-5.303 9.186l-110.661 29.651c-.65.175-1.303.258-1.946.258z"/></g></svg>