<svg height="511pt" viewBox="-72 0 511 511.99991" width="511pt" xmlns="http://www.w3.org/2000/svg"><path d="m362.15625 82.550781c-5.800781-7.714843-14.28125-12.617187-23.878906-13.800781-18.601563-2.296875-36.199219 11.203125-39.214844 30.089844l-9.6875 60.664062 5.101562-114.769531c.847657-19.109375-13.664062-35.875-32.351562-37.371094-9.628906-.773437-18.933594 2.320313-26.171875 8.710938s-11.460937 15.222656-11.890625 24.867187l-5.507812 123.90625-11.125-131.894531c-1.605469-19.058594-18.144532-33.824219-36.875-32.9140625-9.660157.4726565-18.480469 4.7304685-24.835938 11.9921875-6.359375 7.269531-9.417969 16.566406-8.605469 26.1875l9.257813 109.742188-11.714844-63.097657c-3.171875-17.082031-17.785156-29.496093-34.746094-29.515625-10.554687-.042968-20.414062 4.613282-27.144531 12.699219-6.726563 8.082031-9.488281 18.652344-7.566406 28.992187l21.71875 116.980469c.859375 4.613281 1.296875 9.332031 1.304687 14.019531l-1.027344 29.757813c-8.929687-8.71875-19.40625-19.234375-22.328124-22.140625-11.40625-11.339844-33.402344-19.972656-52.996094-.984375-12.496094 12.113281-14.785156 30.546875-6.40625 45.152344 20.699218 36.074219 57.894531 73.285156 97.203125 97.871093-15.699219 9.480469-26.222657 26.703126-26.222657 46.34375v33.863282c0 5.484375.816407 10.894531 2.433594 16.085937 1.230469 3.953125 5.433594 6.164063 9.390625 4.933594 3.953125-1.230469 6.164063-5.433594 4.933594-9.390625-1.164063-3.746094-1.757813-7.660156-1.757813-11.628906v-33.863282c0-21.558593 17.539063-39.097656 39.097657-39.097656h47.132812c-7.808593 7.464844-13.152343 16.984375-15.449219 27.402344h-15.976562c-15.695312 0-28.464844 12.769531-28.464844 28.464844 0 15.695312 12.769532 28.464844 28.464844 28.464844h15.917969c2.332031 10.792968 7.921875 20.378906 15.648437 27.726562h-47.273437c-8.894531 0-17.273438-2.910156-24.230469-8.410156-3.246094-2.570313-7.964844-2.019532-10.535156 1.226562-2.570313 3.25-2.019532 7.964844 1.230468 10.535156 9.628907 7.621094 21.226563 11.648438 33.53125 11.648438h160.253907c29.828125 0 54.097656-24.269531 54.097656-54.097656v-33.863282c0-29.828124-24.269531-54.097656-54.097656-54.097656h-160.253907c-3.40625 0-6.730468.332032-9.960937.9375-21.210937-11.90625-42.148437-27.96875-60.367187-45.859375 19.488281-2.609375 52.4375-8.152343 67.363281-17.246093l.273437-.164063c17.921875-10.921875 72.046875-43.886719 209.738282 10.316406-.878907 12.917969-4.933594 25.378907-11.863282 36.320313-2.21875 3.496094-1.179687 8.132812 2.320313 10.347656s8.132812 1.175781 10.351562-2.324219c9.40625-14.847656 14.375-32.03125 14.375-49.6875v-88.070312c0-9.855469.789063-19.785157 2.34375-29.515625l13.683594-85.691406c1.523437-9.535157-.835937-19.039063-6.640625-26.753907zm-229.375 358.257813c0-7.425782 6.039062-13.464844 13.464844-13.464844h73.996094c7.421874 0 13.464843 6.039062 13.464843 13.464844 0 7.425781-6.042969 13.464844-13.464843 13.464844h-73.996094c-7.425782 0-13.464844-6.039063-13.464844-13.464844zm158.011719-55.867188c21.558593 0 39.097656 17.539063 39.097656 39.097656v33.863282c0 21.558594-17.539063 39.097656-39.097656 39.097656h-75.753907c-17.378906 0-32.46875-11.664062-37.394531-27.726562h42.597657c15.691406 0 28.464843-12.769532 28.464843-28.464844 0-15.695313-12.773437-28.464844-28.464843-28.464844h-42.492188c5.035156-15.878906 20.070312-27.398438 37.289062-27.398438h75.753907zm63.191406-278.003906-13.683594 85.691406c-1.679687 10.511719-2.527343 21.238282-2.527343 31.882813v77.394531c-140.777344-53.976562-198.472657-18.84375-217.730469-7.109375l-.273438.164063c-14.226562 8.667968-54.136719 14.515624-72.496093 16.53125-11.40625-12.71875-21.269532-26.007813-28.800782-39.132813-4.988281-8.699219-3.625-19.894531 4.085938-27.164063 12.421875-11.707031 27.253906-3.625 31.40625.765626 4.953125 5.234374 29.171875 28.910156 34.996094 34.40625 2.140624 2.023437 5.269531 2.605468 8 1.484374 2.722656-1.121093 4.542968-3.734374 4.644531-6.679687l1.609375-46.75c.003906-.085937.007812-.171875.007812-.257813 0-5.648437-.523437-11.332031-1.554687-16.886718l-21.722657-116.980469c-1.101562-5.941406.230469-22.839844 19.917969-23.953125h.027344c9.742187.011719 18.160156 7.269531 20.015625 17.253906l20.941406 112.796875c1.242188 6.675781 7.699219 11.175781 14.417969 10.019531 6.316406-1.085937 10.832031-7.050781 10.28125-13.578124l-13.488281-159.878907c-.464844-5.523437 1.742187-21.089843 19.226562-21.933593 10.753906-.519532 20.261719 8.085937 21.199219 19.191406l13.882813 164.578125c.59375 7.050781 6.800781 12.328125 13.878906 11.765625 6.460937-.515625 11.558594-5.914063 11.851562-12.5625l6.953125-156.390625c.246094-5.539063 3.773438-20.105469 21.878907-19.289063 10.753906.484375 19.058593 10.617188 18.5625 21.753906l-6.804688 153.15625c-.171875 3.796876 1.183594 13.875 14.519531 13.257813 5.589844-.253906 10.050781-5.207031 10.953125-10.863281l15.714844-98.414063c1.757812-11.007812 11.894531-18.964843 22.566406-17.570312 16.066406 2.097656 18.417969 17.820312 17.542969 23.300781zm0 0"/></svg>